<svg width="17" height="16" viewBox="0 0 17 16" fill="none" xmlns="http://www.w3.org/2000/svg">
<g clip-path="url(#clip0_5_369)">
<path d="M16.25 8C16.25 9.45778 15.8944 10.8 15.1833 12.0267C14.4722 13.2533 13.5033 14.2222 12.2767 14.9333C11.05 15.6444 9.70778 16 8.25 16C6.79222 16 5.45 15.6444 4.22333 14.9333C2.99667 14.2222 2.02778 13.2533 1.31667 12.0267C0.605556 10.8 0.25 9.45778 0.25 8C0.25 6.54222 0.605556 5.2 1.31667 3.97333C2.02778 2.74667 2.99667 1.77778 4.22333 1.06667C5.45 0.355556 6.79222 0 8.25 0C9.70778 0 11.05 0.355556 12.2767 1.06667C13.5033 1.77778 14.4722 2.74667 15.1833 3.97333C15.8944 5.2 16.25 6.54222 16.25 8ZM12.3033 4.96C12.1256 4.81778 11.93 4.74667 11.7167 4.74667C11.5033 4.74667 11.3256 4.83556 11.1833 5.01333L7.71667 9.44L5.63667 7.30667C5.49444 7.16444 5.31667 7.10222 5.10333 7.12C4.89 7.13778 4.71222 7.21778 4.57 7.36C4.42778 7.50222 4.35667 7.67111 4.35667 7.86667C4.35667 8.06222 4.42778 8.23111 4.57 8.37333L7.23667 11.04C7.37889 11.1822 7.55667 11.2533 7.77 11.2533C7.98333 11.2533 8.16111 11.1644 8.30333 10.9867L12.3033 6.02667C12.4456 5.88444 12.5167 5.70667 12.5167 5.49333C12.5167 5.28 12.4456 5.10222 12.3033 4.96Z" fill="white"/>
</g>
<defs>
<clipPath id="clip0_5_369">
<rect width="16" height="16" fill="white" transform="matrix(1 0 0 -1 0.25 16)"/>
</clipPath>
</defs>
</svg>
